<svg width="70" height="47" viewBox="0 0 70 47" fill="none" xmlns="http://www.w3.org/2000/svg">
<path fill-rule="evenodd" clip-rule="evenodd" d="M7.29167 0H62.7083C66.7275 0 70 3.2725 70 7.29167V39.375C70 43.3942 66.7275 46.6667 62.7083 46.6667H7.29167C3.2725 46.6667 0 43.3942 0 39.375V7.29167C0 3.2725 3.2725 0 7.29167 0ZM8.225 40.495L25.725 25.9117C26.3433 25.3983 26.4279 24.4767 25.9117 23.8554C25.3954 23.24 24.4738 23.1554 23.8554 23.6688L6.35542 38.2521C5.73708 38.7683 5.6525 39.69 6.16875 40.3083C6.4575 40.6554 6.87167 40.8333 7.29167 40.8333C7.62125 40.8333 7.95375 40.7225 8.225 40.495ZM35 26.2996C33.3958 26.2996 31.7888 25.8213 30.3888 24.8617L6.46917 8.49625C5.80417 8.04125 5.635 7.13417 6.08708 6.46917C6.53917 5.80417 7.44625 5.63208 8.11417 6.09L32.0337 22.4554C33.8333 23.6863 36.1608 23.6863 37.9633 22.4554L61.8829 6.09C62.5508 5.63792 63.4579 5.80417 63.91 6.46917C64.365 7.13417 64.1958 8.04125 63.5308 8.49625L39.6112 24.8617C38.2113 25.8213 36.6042 26.2996 35 26.2996ZM62.7083 40.8333C63.1254 40.8333 63.5396 40.6554 63.8283 40.3083C64.3446 39.69 64.26 38.7683 63.6446 38.2521L46.1446 23.6688C45.5233 23.1554 44.6046 23.24 44.0883 23.8554C43.5721 24.4767 43.6567 25.3954 44.275 25.9117L61.775 40.495C62.0492 40.7225 62.3787 40.8333 62.7083 40.8333Z" fill="url(#paint0_linear_0_124)"/>
<defs>
<linearGradient id="paint0_linear_0_124" x1="26.5803" y1="-26.7674" x2="-21.3953" y2="51.0542" gradientUnits="userSpaceOnUse">
<stop stop-color="#01DCBA"/>
<stop offset="1" stop-color="#7F30CB"/>
</linearGradient>
</defs>
</svg>