<svg width="88" height="87" viewBox="0 0 88 87" fill="none" xmlns="http://www.w3.org/2000/svg">
<path d="M44 0C19.9141 0 0 19.5941 0 43.68C0 63.9766 14.378 81.9 34.1869 86.2971C34.7256 86.41 35.2862 86.2826 35.7193 85.9404C36.1488 85.5946 36.4 85.0741 36.4 84.5208V74.62C36.4 73.6154 35.5846 72.8 34.58 72.8H30.94C26.3973 72.8 23.3069 68.4939 20.5769 64.6974C20.2966 64.3079 20.02 63.9184 19.7397 63.5398C21.0319 64.2242 22.1421 65.0504 23.2378 65.8622C25.4181 67.4783 27.6749 69.1491 30.6743 69.1491C30.6852 69.1491 30.6998 69.1491 30.7107 69.1491C30.9436 69.1746 33.0694 69.393 34.7147 67.9479C35.4864 67.2672 36.4 65.9823 36.4 63.7V62.4296C36.4 61.6143 35.8613 60.9008 35.075 60.6788C24.9813 57.8214 18.2 50.2575 18.2 41.86C18.2 37.492 19.9945 33.3242 23.387 29.8043C23.9112 29.262 24.0458 28.4575 23.7292 27.7732C22.3751 24.8539 22.6626 20.8827 24.2679 18.4985C26.3936 19.3248 29.1491 21.061 30.94 23.1868C31.4314 23.7728 32.2395 23.984 32.9566 23.7219C39.7816 21.2176 47.5821 21.2176 54.4071 23.7219C55.1314 23.984 55.9359 23.7692 56.4236 23.1868C58.2145 21.061 60.97 19.3248 63.0921 18.4948C64.701 20.879 64.9886 24.8539 63.6308 27.7732C63.3142 28.4575 63.4488 29.262 63.973 29.8043C67.3655 33.3242 69.16 37.492 69.16 41.86C69.16 50.6761 61.6252 58.5712 50.8399 61.0574C50.2902 61.1848 49.828 61.5597 49.595 62.0729C49.362 62.5862 49.3766 63.1795 49.6423 63.6782C50.5414 65.389 50.96 67.7076 50.96 70.98V84.5208C50.96 85.0741 51.2112 85.5946 51.6407 85.9404C51.9683 86.2025 52.3687 86.3408 52.78 86.3408C52.911 86.3408 53.0421 86.3262 53.1731 86.2971C72.982 81.9 87.36 63.9766 87.36 43.68C87.36 19.5941 68.0859 0 44 0Z" fill="url(#paint0_linear_0_151)"/>
<defs>
<linearGradient id="paint0_linear_0_151" x1="17.6426" y1="-33.6995" x2="-55.9572" y2="62.6247" gradientUnits="userSpaceOnUse">
<stop stop-color="#01DCBA"/>
<stop offset="1" stop-color="#7F30CB"/>
</linearGradient>
</defs>
</svg>
