<svg width="88" height="88" viewBox="0 0 88 88" fill="none" xmlns="http://www.w3.org/2000/svg">
<path fill-rule="evenodd" clip-rule="evenodd" d="M10.92 21.84C16.951 21.84 21.84 16.951 21.84 10.92C21.84 4.88905 16.951 0 10.92 0C4.88905 0 0 4.88905 0 10.92C0 16.951 4.88905 21.84 10.92 21.84ZM1.82 29.12C0.81536 29.12 0 29.9354 0 30.94V85.54C0 86.5446 0.81536 87.36 1.82 87.36H20.02C21.0246 87.36 21.84 86.5446 21.84 85.54V30.94C21.84 29.9354 21.0246 29.12 20.02 29.12H1.82ZM50.9018 30.485C56.7367 26.2881 66.4664 23.9476 74.2451 26.612C80.1164 28.6213 87.1525 34.1578 87.36 49.1145V85.54C87.36 86.5446 86.5446 87.36 85.54 87.36H67.34C66.3354 87.36 65.52 86.5446 65.52 85.54V52.78C65.52 48.6486 63.7983 45.5473 60.7916 44.277C57.6904 42.9593 53.9011 43.7674 50.96 46.3008V85.54C50.96 86.5446 50.1446 87.36 49.14 87.36H30.94C29.9354 87.36 29.12 86.5446 29.12 85.54V30.94C29.12 29.9354 29.9354 29.12 30.94 29.12H49.14C49.9881 29.12 50.7016 29.7024 50.9018 30.485Z" fill="url(#paint0_linear_0_146)"/>
<defs>
<linearGradient id="paint0_linear_0_146" x1="26.5132" y1="-44.4653" x2="-77.2363" y2="57.2177" gradientUnits="userSpaceOnUse">
<stop stop-color="#01DCBA"/>
<stop offset="1" stop-color="#7F30CB"/>
</linearGradient>
</defs>
</svg>
