<svg width="88" height="88" viewBox="0 0 88 88" fill="none" xmlns="http://www.w3.org/2000/svg">
<path fill-rule="evenodd" clip-rule="evenodd" d="M1.83333 88H86.1667C87.1787 88 88 87.1713 88 86.1593C88 76.6847 81.5833 68.464 72.391 66.165L58.344 62.6523L57.1487 57.871C60.907 54.1493 63.481 49.0417 64.2437 43.7947C66.3263 43.2117 67.9397 41.4223 68.2183 39.182L69.135 31.8487C69.3293 30.3013 68.8527 28.7393 67.826 27.5623C67.2247 26.873 66.4657 26.3523 65.626 26.0333L65.9633 19.129L67.3347 17.754C69.399 15.5577 71.1113 11.792 67.5327 6.32867C64.7827 2.13033 60.1113 0 53.6433 0C51.095 0 45.2173 0 39.7467 3.674C24.1267 4.00033 22 11.2567 22 18.3333C22 19.9797 22.3997 23.6867 22.6637 25.9233C21.7213 26.2203 20.8633 26.7703 20.196 27.5257C19.1547 28.71 18.667 30.283 18.8613 31.845L19.778 39.1783C20.0787 41.5727 21.8973 43.45 24.189 43.8973C24.948 48.939 27.39 53.8853 30.932 57.5447L29.656 62.6523L15.609 66.165C6.41667 68.464 0 76.6847 0 86.1667C0 87.1787 0.821333 88 1.83333 88ZM84.2553 85.1915H3.74468C4.49671 78.2054 9.5261 72.3464 16.4887 70.6081L31.6063 66.8387C32.2629 66.674 32.7765 66.1617 32.9452 65.5066L34.7428 58.3302C34.9078 57.6861 34.7024 57.0054 34.2182 56.5517C30.5131 53.086 28.0626 48.0029 27.6591 42.96C27.582 42.0085 26.786 41.2766 25.8285 41.2766H25.2306C24.3061 41.2766 23.5248 40.5886 23.411 39.6737L22.4939 32.3546C22.4279 31.8239 22.5856 31.3152 22.9378 30.9163C23.29 30.5174 23.7779 30.2979 24.3135 30.2979H24.6913C25.2196 30.2979 25.7221 30.071 26.067 29.6794C26.4155 29.2842 26.5769 28.7609 26.5108 28.2412C26.2761 26.3638 25.6598 21.1087 25.6598 19.3191C25.6598 13.6102 26.7823 8.47583 40.3518 8.34043C40.7259 8.33677 41.0965 8.216 41.4009 8.00008C45.4949 5.07609 49.8896 4.68085 53.6498 4.68085C58.8075 4.68085 62.4466 6.25081 64.4752 9.34315C66.9111 13.0576 65.8619 14.9789 64.7137 16.1975L62.8795 18.0273C62.5567 18.3494 62.3659 18.7775 62.3439 19.2313L61.9 28.3912C61.878 28.8889 62.0578 29.372 62.3989 29.7343C62.7401 30.0966 63.2133 30.3052 63.7122 30.3089C64.2441 30.3125 64.7284 30.5357 65.0769 30.9346C65.4254 31.3299 65.5794 31.8312 65.5134 32.3546L64.5963 39.6737C64.4826 40.5886 63.6975 41.2766 62.597 41.2766C61.6396 41.2766 60.8435 42.0085 60.7665 42.96C60.3519 48.1639 57.7841 53.3459 53.8919 56.8261C53.3856 57.2763 53.1729 57.9716 53.3379 58.6303L55.0621 65.5066C55.2272 66.1617 55.7408 66.674 56.3937 66.8387L71.5149 70.6081C78.4739 72.3464 83.5033 78.2017 84.2553 85.1915Z" fill="url(#paint0_linear_0_97)"/>
<defs>
<linearGradient id="paint0_linear_0_97" x1="58.8678" y1="-60.675" x2="-47.6964" y2="34.7179" gradientUnits="userSpaceOnUse">
<stop stop-color="#01DCBA"/>
<stop offset="1" stop-color="#7F30CB"/>
</linearGradient>
</defs>
</svg>
