<svg width="58" height="58" viewBox="0 0 58 58" fill="none" xmlns="http://www.w3.org/2000/svg">
<path d="M53.4211 38.1884C49.8434 38.1884 46.3389 37.6298 43.0177 36.5339C41.3967 35.9753 39.556 36.4057 38.4906 37.4924L31.9061 42.4652C24.3508 38.4326 19.5155 33.6003 15.5379 26.1L20.3763 19.6712C21.5943 18.4532 22.0308 16.6704 21.5088 15.0006C20.4038 11.658 19.8421 8.15053 19.8421 4.57895C19.8421 2.05442 17.7877 0 15.2632 0H4.57895C2.05442 0 0 2.05442 0 4.57895C0 34.0338 23.9662 58 53.4211 58C55.9456 58 58 55.9456 58 53.4211V42.7674C58 40.2428 55.9456 38.1884 53.4211 38.1884Z" fill="url(#paint0_linear_0_114)"/>
<defs>
<linearGradient id="paint0_linear_0_114" x1="16.6358" y1="-12.9758" x2="-33.1237" y2="38.5958" gradientUnits="userSpaceOnUse">
<stop stop-color="#01DCBA"/>
<stop offset="1" stop-color="#7F30CB"/>
</linearGradient>
</defs>
</svg>