<svg width="88" height="88" viewBox="0 0 88 88" fill="none" xmlns="http://www.w3.org/2000/svg">
<path fill-rule="evenodd" clip-rule="evenodd" d="M75.1667 88H12.8333C5.75667 88 0 82.2433 0 75.1667V17V12.8333C0 5.75667 5.75667 0 12.8333 0H75.1667C82.2433 0 88 5.75667 88 12.8333V17V75.1667C88 82.2433 82.2433 88 75.1667 88ZM84.3333 19V75.1667C84.3333 80.2193 80.2193 84.3333 75.1667 84.3333H12.8333C7.78067 84.3333 3.66667 80.2193 3.66667 75.1667V19H84.3333ZM84.3333 15H3.66667V12.8333C3.66667 7.78067 7.78067 3.66667 12.8333 3.66667H75.1667C80.2193 3.66667 84.3333 7.78067 84.3333 12.8333V15ZM13.01 11C11.9114 11 11 10.104 11 9C11 7.896 11.8716 7 12.9701 7H13.01C14.1085 7 15 7.896 15 9C15 10.104 14.1085 11 13.01 11ZM18 9C18 10.104 18.9114 11 20.01 11C21.1085 11 22 10.104 22 9C22 7.896 21.1085 7 20.01 7H19.9701C18.8716 7 18 7.896 18 9ZM28.01 11C26.9114 11 26 10.104 26 9C26 7.896 26.8716 7 27.9701 7H28.01C29.1085 7 30 7.896 30 9C30 10.104 29.1085 11 28.01 11ZM24.1667 70H16.8333C15.8213 70 15 69.1787 15 68.1667V60.8333C15 59.8213 15.8213 59 16.8333 59H24.1667C24.5035 59 24.8192 59.091 25.0905 59.2497L62 36.0255V30.8333C62 29.8213 62.8213 29 63.8333 29H71.1667C72.1787 29 73 29.8213 73 30.8333V38.1667C73 39.1787 72.1787 40 71.1667 40H63.8333C63.496 40 63.1798 39.9087 62.9082 39.7495L26 62.9728V68.1667C26 69.1787 25.1787 70 24.1667 70ZM22.3333 63.2311V66.3333H18.6667V62.6667H22.0647C22.112 62.8378 22.1857 63.0049 22.2869 63.1625C22.3019 63.1858 22.3174 63.2087 22.3333 63.2311ZM65.9357 36.3333H69.3333V32.6667H65.6667V35.7674C65.6826 35.7897 65.6981 35.8126 65.7131 35.8359C65.8146 35.9939 65.8884 36.1616 65.9357 36.3333Z" fill="url(#paint0_linear_0_71)"/>
<defs>
<linearGradient id="paint0_linear_0_71" x1="65.4791" y1="-86.3363" x2="-56.6387" y2="26.9411" gradientUnits="userSpaceOnUse">
<stop stop-color="#01DCBA"/>
<stop offset="1" stop-color="#7F30CB"/>
</linearGradient>
</defs>
</svg>
