<svg width="55" height="103" viewBox="0 0 55 103" fill="none" xmlns="http://www.w3.org/2000/svg">
<path fill-rule="evenodd" clip-rule="evenodd" d="M30.6667 18V47H26.3333V18H30.6667ZM26.3333 13V6.375C26.3333 5.202 27.3083 4.25 28.5 4.25C29.6917 4.25 30.6667 5.202 30.6667 6.375V13H26.3333ZM22 15.5V47H18.8375L17.1312 28.2077C17.1057 27.9502 17.0335 27.6927 16.9188 27.4605L10.9326 15.4862C10.996 15.2617 11.0164 15.0236 10.9864 14.7802L10.4869 10.7806C10.3429 9.68072 9.2538 8.8888 7.99822 9.01278C6.76513 9.13677 5.87857 10.1247 6.01358 11.2206L6.40261 14.3354C6.3762 14.4013 6.35291 14.469 6.33295 14.5382L2.08502 29.3138C2.00431 29.5755 1.98307 29.8541 2.01281 30.1243L3.89959 47H2.11477C1.52245 47 0.95974 47.2542 0.557808 47.6978C0.155875 48.1415 -0.0429762 48.736 0.0077943 49.3348L3.91712 97.0769C4.18366 100.398 6.96335 103 10.238 103H44.762C48.0367 103 50.8163 100.398 51.0829 97.0769L54.9922 49.3348C55.043 48.736 54.8441 48.1415 54.4422 47.6978C54.0403 47.2542 53.4776 47 52.8852 47H51V27.5V10.15C51 8.9632 50.0293 8 48.8333 8H47V2.16667C47 0.970667 45.88 0 44.5 0C43.12 0 42 0.970667 42 2.16667V8H40.1667C38.9707 8 38 8.9632 38 10.15V27.5V47H35V15.5V6.375C35 2.86025 32.0837 0 28.5 0C24.9163 0 22 2.86025 22 6.375V15.5ZM44.5 13C43.7725 13 43.1173 12.7303 42.6604 12.3H42.3333V25H46.6667V12.3H46.3396C45.8827 12.7303 45.2275 13 44.5 13ZM42.3333 30V47H46.6667V30H42.3333ZM14.5714 47L12.93 28.9803L8.9072 20.9339L6.28197 30.0694L8.17446 47H14.5714ZM8.13107 96.7194L7.99026 95H39.8889C41.0542 95 42 93.88 42 92.5C42 91.12 41.0542 90 39.8889 90H7.58079L4.41213 51.3077H50.5879L46.8689 96.7194C46.7801 97.8265 45.8535 98.6923 44.762 98.6923H10.238C9.14648 98.6923 8.21992 97.8265 8.13107 96.7194Z" fill="url(#paint0_linear_0_55)"/>
<defs>
<linearGradient id="paint0_linear_0_55" x1="35.8518" y1="-86.7092" x2="-69.6834" y2="-32.3927" gradientUnits="userSpaceOnUse">
<stop stop-color="#01DCBA"/>
<stop offset="1" stop-color="#7F30CB"/>
</linearGradient>
</defs>
</svg>
