<svg width="88" height="72" viewBox="0 0 88 72" fill="none" xmlns="http://www.w3.org/2000/svg">
<path d="M86.8639 8.7399C86.2865 8.1056 85.356 7.94607 84.5926 8.33729C84.1178 8.58038 83.2252 8.89943 82.1655 9.21468C83.5025 7.43711 84.5774 5.44685 85.0521 3.65789C85.2572 2.88686 84.9572 2.07404 84.3039 1.61445C83.6506 1.15867 82.7808 1.15867 82.1275 1.61445C81.0982 2.33232 76.1301 4.4897 72.989 5.18857C65.8902 -1.0291 57.629 -1.6748 49.0413 3.33884C42.0602 7.41432 40.5409 15.702 40.8371 20.7536C24.8581 19.2154 14.9257 10.7757 9.33477 3.79083C8.94355 3.30086 8.31305 3.04258 7.72053 3.08056C7.09762 3.12614 6.53549 3.47178 6.21644 4.00733C3.57288 8.47023 2.83983 13.4041 4.10463 18.2772C4.79591 20.936 6.00374 23.2795 7.40528 25.1786C6.73299 24.8481 6.0835 24.4341 5.47199 23.9403C4.90985 23.477 4.12362 23.3896 3.45893 23.6973C2.79805 24.0125 2.37644 24.681 2.37644 25.4141C2.37644 33.7815 7.61038 39.3649 12.4987 42.2819C11.7087 42.187 10.8844 42.0122 10.0526 41.7578C9.33857 41.5413 8.56373 41.7578 8.06996 42.3199C7.5762 42.8782 7.45845 43.6759 7.76611 44.3557C10.5122 50.4291 15.7158 54.6071 22.1537 56.1226C16.5324 59.4232 9.00812 61.0413 2.11817 60.2475C1.22559 60.1221 0.374786 60.6881 0.0937182 61.5464C-0.18735 62.4048 0.181077 63.3468 0.967307 63.7874C11.42 69.6556 20.8699 71.7522 29.0361 71.7522C40.9207 71.7522 50.0934 67.3159 55.6768 63.6051C70.7291 53.6158 80.1107 35.6806 78.8041 19.6332C81.2159 17.8518 84.8242 14.5626 87.0614 11.0264C87.5248 10.3124 87.4412 9.3704 86.8639 8.7399Z" fill="url(#paint0_linear_0_133)"/>
<defs>
<linearGradient id="paint0_linear_0_133" x1="28.6752" y1="-46.4967" x2="-50.9619" y2="65.5162" gradientUnits="userSpaceOnUse">
<stop stop-color="#01DCBA"/>
<stop offset="1" stop-color="#7F30CB"/>
</linearGradient>
</defs>
</svg>
